<?xml version="1.0" standalone="no"?>
<!DOCTYPE svg PUBLIC "-//W3C//DTD SVG 20010904//EN"
 "http://www.w3.org/TR/2001/REC-SVG-20010904/DTD/svg10.dtd">
<svg version="1.0" xmlns="http://www.w3.org/2000/svg"
 width="256.000000pt" height="246.000000pt" viewBox="0 0 256.000000 246.000000"
 preserveAspectRatio="xMidYMid meet">

<g transform="translate(0.000000,246.000000) scale(0.100000,-0.100000)"
fill="#efa56d" stroke="none">
<path d="M1230 2400 c-19 -19 -20 -33 -20 -290 0 -257 1 -271 20 -290 29 -29
74 -26 100 7 20 26 21 35 18 291 -3 264 -3 264 -27 283 -30 25 -66 24 -91 -1z"/>
<path d="M1538 2279 c-30 -17 -41 -47 -28 -78 9 -23 30 -35 121 -70 284 -110
509 -339 593 -605 31 -96 41 -113 76 -121 34 -8 80 27 80 61 0 74 -100 294
-183 401 -59 77 -209 219 -277 264 -74 49 -179 101 -268 133 -81 29 -89 30
-114 15z"/>
<path d="M870 2251 c-263 -98 -488 -299 -610 -541 -68 -135 -98 -263 -67 -288
6 -6 24 -13 38 -17 42 -10 72 27 104 127 47 151 149 299 284 415 97 83 185
135 308 183 115 45 139 70 113 118 -22 38 -74 39 -170 3z"/>
<path d="M610 1830 c-42 -42 -29 -66 109 -204 l129 -129 -39 -71 c-89 -165
-90 -341 -3 -518 l28 -57 -122 -125 c-102 -103 -122 -129 -122 -154 0 -21 8
-37 26 -51 49 -39 66 -30 199 100 l124 121 33 -26 c19 -14 67 -41 106 -59 l72
-33 -72 -38 c-96 -50 -216 -131 -303 -205 -58 -50 -72 -58 -85 -47 -202 167
-312 320 -371 518 -20 70 -37 88 -82 88 -32 0 -57 -30 -57 -68 0 -42 60 -207
104 -287 98 -174 263 -333 456 -438 57 -31 260 -107 287 -107 5 0 14 30 20 68
23 141 85 254 202 365 118 111 218 170 509 298 75 34 166 80 202 104 63 42
132 105 116 105 -5 0 -76 -14 -158 -31 -82 -17 -151 -29 -153 -27 -2 2 6 30
17 63 26 77 35 216 18 296 -7 33 -30 95 -51 137 l-39 76 130 131 c81 82 130
139 130 152 0 37 -38 73 -77 73 -31 0 -48 -13 -162 -125 l-127 -125 -65 35
c-87 46 -166 65 -270 65 -101 0 -197 -25 -273 -72 l-49 -30 -126 126 c-110
109 -131 126 -159 126 -19 0 -40 -8 -52 -20z m811 -289 c113 -43 215 -155 240
-265 17 -78 7 -219 -20 -281 -68 -153 -219 -243 -390 -233 -108 6 -184 43
-260 124 -82 87 -104 148 -105 279 -1 97 0 104 37 177 94 191 300 273 498 199z"/>
<path d="M37 1222 c-22 -25 -21 -75 1 -95 16 -15 52 -17 294 -17 254 0 276 1
291 18 22 25 21 75 -1 95 -16 15 -52 17 -294 17 -254 0 -276 -1 -291 -18z"/>
<path d="M1927 1222 c-22 -25 -21 -75 1 -95 16 -15 52 -17 299 -17 258 0 281
1 296 18 22 25 21 75 -1 95 -16 15 -52 17 -299 17 -258 0 -281 -1 -296 -18z"/>
<path d="M2269 921 c-13 -10 -123 -70 -244 -133 -121 -62 -251 -134 -290 -159
-201 -130 -315 -302 -315 -474 0 -81 15 -125 43 -125 46 0 216 53 304 95 227
107 406 276 518 488 49 92 95 220 95 265 0 56 -63 81 -111 43z"/>
</g>
</svg>
